# xmcd
#
# Track frame offsets:
#	150
#	11472
#	23307
#	35352
#	46690
#	64132
#	78207
#	92435
#	110982
#	123485
#	135137
#	147300
#	165407
#	181672
#	189735
#	201757
#	218120
#	232698
#	245170
#	260533
#
# Disc length: 3697 seconds
#
# Revision: 2
# Processed by: cddbd v1.5.1PL0 Copyright (c) Steve Scherf et al.
# Submitted via: audiograbber 1.83.01
#
DISCID=fc0e6f14
DTITLE=Various Artist - Essential Blues
DYEAR=1999
DGENRE=Blues
TTITLE0=John Lee Hooker - Boom Boom
TTITLE1=Lightnin Hopkins - Lightnin's Stomp
TTITLE2=Ray Charles - C C Rider
TTITLE3=Canned Heat - Can't hold on
TTITLE4=Howlin Wolf - Dust my broom
TTITLE5=Mississippi John Hurt - Casey Jones
TTITLE6=Leadbelly - The Boll Weevil
TTITLE7=Pinetop Perkins - Kidney Stew
TTITLE8=Jimmy Reed - Honest I Do
TTITLE9=Lightnin Slim - G.I. Blues
TTITLE10=Memphis Slim - Wish Me Well
TTITLE11=Big Joe Turner - Chains of Love
TTITLE12=Muddy Waters - Corrina Corrina
TTITLE13=Billie Holiday - Miss Brown to You
TTITLE14=Big Yoe Williams - Sugar Mama
TTITLE15=John Lee Hooker - Process
TTITLE16=Lightnin Hopkins - Santa Fe Blues
TTITLE17=Ray Charles - Rockin Chair Blues
TTITLE18=Howlin Wolf - Goin Down Slow
TTITLE19=Mississippi John Hurt - My Creole Belle
EXTD=YEAR: 1999 ID3G: 0
EXTT0=
EXTT1=
EXTT2=
EXTT3=
EXTT4=
EXTT5=
EXTT6=
EXTT7=
EXTT8=
EXTT9=
EXTT10=
EXTT11=
EXTT12=
EXTT13=
EXTT14=
EXTT15=
EXTT16=
EXTT17=
EXTT18=
EXTT19=
PLAYORDER=
